<?xml version="1.0" encoding="iso-8859-1"?>
<!-- Generator: Adobe Illustrator 19.0.0, SVG Export Plug-In . SVG Version: 6.00 Build 0)  -->
<svg version="1.1" id="Layer_1" xmlns="http://www.w3.org/2000/svg" xmlns:xlink="http://www.w3.org/1999/xlink" x="0px" y="0px"
	 viewBox="0 0 491.51 491.51" style="enable-background:new 0 0 491.51 491.51;" xml:space="preserve">
<g>
	<g>
		<g>
			<path d="M409.595,40.95h-81.92V20.48c0-11.311-9.169-20.48-20.48-20.48h-122.88c-11.311,0-20.48,9.169-20.48,20.48v20.47h-81.92
				c-11.311,0-20.48,9.169-20.48,20.48v409.6c0,11.311,9.169,20.48,20.48,20.48h327.68c11.311,0,20.48-9.169,20.48-20.48V61.43
				C430.075,50.119,420.906,40.95,409.595,40.95z M204.795,40.96h81.92v20.47v20.48h-81.92V61.43V40.96z M389.115,450.55h-286.72
				V81.91h61.44v20.48v0.01c0,11.311,9.169,20.48,20.48,20.48h122.88c11.311,0,20.48-9.169,20.48-20.48v-0.01V81.91h61.44V450.55z"
				/>
			<path d="M307.195,184.31h-122.88c-11.311,0-20.48,9.169-20.48,20.48s9.169,20.48,20.48,20.48h122.88
				c11.311,0,20.48-9.169,20.48-20.48S318.506,184.31,307.195,184.31z"/>
			<path d="M307.195,266.23h-122.88c-11.311,0-20.48,9.169-20.48,20.48s9.169,20.48,20.48,20.48h122.88
				c11.311,0,20.48-9.169,20.48-20.48S318.506,266.23,307.195,266.23z"/>
			<path d="M307.195,348.15h-122.88c-11.311,0-20.48,9.169-20.48,20.48s9.169,20.48,20.48,20.48h122.88
				c11.311,0,20.48-9.169,20.48-20.48S318.506,348.15,307.195,348.15z"/>
		</g>
	</g>
</g>
<g>
</g>
<g>
</g>
<g>
</g>
<g>
</g>
<g>
</g>
<g>
</g>
<g>
</g>
<g>
</g>
<g>
</g>
<g>
</g>
<g>
</g>
<g>
</g>
<g>
</g>
<g>
</g>
<g>
</g>
</svg>
